# xmcd
#
# Track frame offsets: 
#        150
#        16163
#        28473
#        46571
#        63134
#        76639
#        90887
#        108314
#        123127
#        141790
#        154683
#        170523
#        188907
#        203529
#        218990
#        233640
#        245447
#        263104
#        281340
#        294425
#
# Disc length: 4129 seconds
#
# Revision: 0
# Processed by: cddbd v1.5.2PL0 Copyright (c) Steve Scherf et al.
# Submitted via: ExactAudioCopy v1.0b1
#
DISCID=fb101f14
DTITLE=RapKilla - Gang Member Vol.1 
DYEAR=2006
DGENRE=Hip-Hop
TTITLE0=Alles echt
TTITLE1=Gang member
TTITLE2=Konnekktet
TTITLE3=Heavy metal
TTITLE4=Butterfly
TTITLE5=Nimm ihn
TTITLE6=Krieger, Hustler, Pimps
TTITLE7=Sarajevo Untergrund
TTITLE8=Ich bin verloren
TTITLE9=Springt!
TTITLE10=Du Schwein
TTITLE11=Überfall
TTITLE12=Alptraum
TTITLE13=Schlampen zu mir!?
TTITLE14=Wir sind gefährlich
TTITLE15=Ghetto bitch
TTITLE16=Nix zu verlieren
TTITLE17=Üble Schläger
TTITLE18=Springt! (Remix) (Geschraubt)
TTITLE19=Keine Fehler
EXTD=
EXTT0=
EXTT1=
EXTT2=
EXTT3=
EXTT4=
EXTT5=
EXTT6=
EXTT7=
EXTT8=
EXTT9=
EXTT10=
EXTT11=
EXTT12=
EXTT13=
EXTT14=
EXTT15=
EXTT16=
EXTT17=
EXTT18=
EXTT19=
PLAYORDER=
